<svg xmlns="http://www.w3.org/2000/svg" version="1.1" xmlns:xlink="http://www.w3.org/1999/xlink" xmlns:svgjs="http://svgjs.dev/svgjs" width="2000" height="525" viewBox="0 0 2000 525"><g transform="matrix(1,0,0,1,-1.2112696095522324,-0.05237499258214484)"><svg viewBox="0 0 396 104" data-background-color="#ffffff" preserveAspectRatio="xMidYMid meet" height="525" width="2000" xmlns="http://www.w3.org/2000/svg" xmlns:xlink="http://www.w3.org/1999/xlink"><g id="tight-bounds" transform="matrix(1,0,0,1,0.24008861730862918,0.01054701124766666)"><svg viewBox="0 0 395.52 103.97887284990446" height="103.97887284990446" width="395.52"><g><svg viewBox="0 0 395.52 103.97887284990446" height="103.97887284990446" width="395.52"><g><svg viewBox="0 0 395.52 103.97887284990446" height="103.97887284990446" width="395.52"><g><svg viewBox="0 0 395.52 103.97887284990446" height="103.97887284990446" width="395.52"><g><svg viewBox="0 0 395.52 103.97887284990446" height="103.97887284990446" width="395.52"><path d="M394.594 22.301C392.735 11.509 387.435 8.508 387.435 8.508 371.165-2.609 350.86-0.213 332.619 1.385 300.414 1.449 268.339 3.824 236.208 5.097 168.767 5.292 100.749 2.097 33.643 9.976 27.339 12.394-6.54 10.451 1.121 23.683 3.129 29.187 10.456 35.296 10.232 40.347 11.236 41.232 12.631 39.203 13.226 40.477 15.309 43.909 18.711 42.29 21.501 44.319 17.614 49.737 20.403 54.249 23.062 58.976 18.377 60.206 12.371 59.624 9.675 63.703 9.396 66.661 7.89 66.099 6.235 65.97 5.026 65.883 2.59 66.207 2.999 67.135 4.394 70.309-1.594 72.143 2.162 75.252-0.422 78.619 3.948 81.533 3.353 85.181 3.278 85.915 3.687 86.541 4.338 86.714 7.22 87.642 3.018 89.455 3.464 91.42 33.029 104.846 65.104 95.564 95.394 101.738 103.259 97.421 97.346 103.27 100.489 102.364 102.943 101.306 104.728 105.688 107.499 103.206 107.927 102.493 107.276 100.81 108.8 101.133 109.6 101.306 110.307 101.263 110.418 100.27 110.586 98.78 109.117 99.709 108.726 98.932 112.947 95.003 111.906 104.35 115.866 103.961 115.68 102.817 114.528 101.177 116.889 101.392 119.232 99.752 119.306 98.392 121.389 102.083 121.463 102.882 121.835 103.443 122.43 103.832 128.938 99.817 135.409 105.256 142.233 103.443 146.417 101.457 150.433 104.522 154.672 103.767 156.16 103.162 157.666 102.083 159.098 103.896 176.632 104.285 195.319 102.666 211.943 103.961 256.364 101.543 303.835 104.954 350.674 101.759 361.719 100.529 373.192 98.78 383.958 97.377 383.958 97.377 392.679 93.535 392.679 76.266S394.538 61.156 394.817 47.406C395.096 33.656 396.398 33.094 394.538 22.301Z" opacity="1" fill="#ffa458" data-fill-palette-color="tertiary"></path><g transform="matrix(1,0,0,1,55.76832,26.230666666666668)"><svg width="283.98335999999995" viewBox="3 -35.900001525878906 200.63999938964844 36.400001525878906" height="51.51753951657112" data-palette-color="#ffffff"><path d="M13.6 0L4 0 4-27.35 3-32.35 4.05-35.35 13.6-35.35 23.4-16.35 24.4-16.35 32.5-35.35 42.45-35.35 42.95-32.35 42.45-27.55 42.45 0 33.4 0 33.55-4.25 33.55-18.2 33-18.2 31-13.4 26.5-5 20.5-5 13.6-18.2 13.1-18.2 13.1-14.15 13.6 0ZM55.85 0L46.45 0 48.85-8.45 48.85-14.8 52.55-16.3 59.05-35.35 72-35.35 80.05-12.95 83.9-5.85 83.9 0 75.05 0 72.55-8 58-8 55.85 0ZM64.95-27.15L61.3-15.7 69.8-15.7 66-27.15 64.95-27.15ZM97.4 0L88.4 0 88.4-27.35 87.4-32.4 88.4-35.4 104.4-35.4Q108.05-35.4 110.97-34.27 113.9-33.15 115.62-30.48 117.35-27.8 117.35-23.1L117.35-23.1Q117.35-18.85 115.8-16.23 114.25-13.6 111.5-12.3L111.5-12.3 112-11.75 116.95-5.55 119.8-3 119.8 0 108.55 0 101.55-10.65 97.4-10.65 97.4-8.05 97.9-3.05 97.4 0ZM96.9-27.4L97.4-18.5 102.3-18.5Q104.9-18.5 106.45-19.48 108-20.45 108-23.1L108-23.1Q108-24.95 107.25-25.88 106.5-26.8 105.17-27.1 103.85-27.4 102.1-27.4L102.1-27.4 96.9-27.4ZM132.84 0L123.79 0 123.79-27.4 123.29-32.4 123.79-35.4 132.84-35.4 132.84 0ZM154.29 0.5L154.29 0.5Q146.59 0.5 142.72-3.03 138.84-6.55 138.84-14.35L138.84-14.35 138.84-27.35 138.89-32.4 138.84-35.4 147.94-35.4 147.94-15.35Q147.94-11.85 149.34-9.68 150.74-7.5 154.29-7.5L154.29-7.5Q157.84-7.5 159.32-9.53 160.79-11.55 160.79-15.35L160.79-15.35 160.79-35.4 169.74-35.4 169.74-14.35Q169.74-6.7 165.97-3.1 162.19 0.5 154.29 0.5ZM188.24 0.5L188.24 0.5Q185.49 0.5 183.04-0.03 180.59-0.55 178.79-1.3 176.99-2.05 176.14-2.7L176.14-2.7 176.14-11.65Q178.54-10.3 182.19-9.13 185.84-7.95 190.29-7.95L190.29-7.95Q192.09-7.95 192.96-8.43 193.84-8.9 193.84-10.1L193.84-10.1Q193.84-11.4 191.86-12.28 189.89-13.15 185.64-14.45L185.64-14.45Q182.34-15.5 180.01-16.78 177.69-18.05 176.46-19.98 175.24-21.9 175.24-24.9L175.24-24.9Q175.24-28 176.84-30.5 178.44-33 181.84-34.45 185.24-35.9 190.54-35.9L190.54-35.9Q192.14-35.9 193.96-35.77 195.79-35.65 196.89-35.45L196.89-35.45 202.54-31.3 200.59-25.2 188.74-28.45Q186.69-28.45 185.71-27.6 184.74-26.75 184.74-25.55L184.74-25.55Q184.74-24.1 186.39-23.25 188.04-22.4 191.14-21.55L191.14-21.55Q196.04-20.2 198.74-18.55 201.44-16.9 202.54-14.83 203.64-12.75 203.64-10.15L203.64-10.15Q203.64-5.35 199.79-2.43 195.94 0.5 188.24 0.5Z" opacity="1" transform="matrix(1,0,0,1,0,0)" fill="#ffffff" class="undefined-text-0" data-fill-palette-color="quaternary" id="text-0"></path></svg></g></svg></g></svg></g></svg></g><g></g></svg></g><defs></defs></svg><rect width="395.52" height="103.97887284990446" fill="none" stroke="none" visibility="hidden"></rect></g></svg></g></svg>